<?xml version="1.0" standalone="no"?>
<!DOCTYPE svg PUBLIC "-//W3C//DTD SVG 20010904//EN"
 "http://www.w3.org/TR/2001/REC-SVG-20010904/DTD/svg10.dtd">
<svg version="1.0" xmlns="http://www.w3.org/2000/svg"
 width="959.000000pt" height="959.000000pt" viewBox="0 0 959.000000 959.000000"
 preserveAspectRatio="xMidYMid meet">
<metadata>
Created by potrace 1.11, written by Peter Selinger 2001-2013
</metadata>
<g transform="translate(0.000000,959.000000) scale(0.100000,-0.100000)"
fill="#000000" stroke="none">
<path d="M4720 9572 c-19 -1 -73 -12 -120 -24 -231 -56 -415 -208 -520 -427
-50 -106 -65 -179 -65 -316 1 -138 14 -203 63 -314 80 -184 273 -360 452 -414
13 -4 15 -71 15 -543 l0 -539 -1555 -1 c-855 -1 -1573 -4 -1595 -8 -264 -44
-469 -247 -522 -516 -3 -14 -5 -195 -6 -402 0 -263 -4 -378 -11 -379 -6 -1
-69 -2 -141 -3 -71 -2 -146 -6 -165 -10 -237 -51 -423 -215 -508 -448 l-27
-73 0 -1665 0 -1665 29 -80 c30 -84 91 -185 147 -246 72 -77 194 -153 289
-180 25 -7 52 -14 60 -17 8 -2 85 -6 171 -9 l156 -5 0 -322 c1 -409 2 -426 30
-516 33 -107 75 -174 162 -260 76 -75 128 -107 250 -154 l56 -21 3395 -3
c3380 -2 3395 -2 3475 18 146 37 261 112 348 225 46 60 102 170 111 216 2 13
8 37 12 54 4 16 8 181 9 365 1 184 3 335 5 335 1 0 3 14 4 30 l1 30 165 6
c143 5 175 9 241 31 227 79 389 257 444 490 13 54 15 281 15 1668 0 1795 4
1683 -73 1840 -56 115 -177 238 -287 292 -116 56 -184 70 -355 72 l-150 2 -2
28 c-1 15 -4 188 -6 384 -5 379 -10 424 -59 531 -82 178 -250 311 -443 352
-47 10 -398 13 -1620 13 l-1560 1 0 534 0 534 95 48 c166 84 287 205 363 364
57 118 71 184 71 330 1 117 -2 139 -28 220 -16 50 -40 107 -53 127 -13 21 -23
40 -23 43 0 7 -71 102 -102 136 -78 86 -253 190 -363 216 -96 23 -199 33 -275
25z"/>
</g>
</svg>
