<?xml version="1.0" encoding="UTF-8"?>
<svg xmlns="http://www.w3.org/2000/svg" xmlns:xlink="http://www.w3.org/1999/xlink" width="85pt" height="96pt" viewBox="0 0 85 96" version="1.1">
<g id="surface1">
<path style=" stroke:none;fill-rule:nonzero;fill:rgb(14.901961%,30.196078%,89.411765%);fill-opacity:1;" d="M 42.417969 96.089844 L 7.730469 86.484375 L 0 0 L 84.9375 0 L 77.199219 86.46875 Z M 42.417969 96.089844 "/>
<path style=" stroke:none;fill-rule:nonzero;fill:rgb(16.078431%,39.607843%,94.509804%);fill-opacity:1;" d="M 70.574219 80.964844 L 77.1875 7.070312 L 42.46875 7.070312 L 42.46875 88.738281 Z M 70.574219 80.964844 "/>
<path style=" stroke:none;fill-rule:nonzero;fill:rgb(92.156863%,92.156863%,92.156863%);fill-opacity:1;" d="M 17.71875 39.148438 L 18.671875 49.753906 L 42.46875 49.753906 L 42.46875 39.148438 Z M 17.71875 39.148438 "/>
<path style=" stroke:none;fill-rule:nonzero;fill:rgb(92.156863%,92.156863%,92.156863%);fill-opacity:1;" d="M 15.804688 17.679688 L 16.773438 28.285156 L 42.46875 28.285156 L 42.46875 17.679688 Z M 15.804688 17.679688 "/>
<path style=" stroke:none;fill-rule:nonzero;fill:rgb(92.156863%,92.156863%,92.156863%);fill-opacity:1;" d="M 42.46875 66.695312 L 42.421875 66.707031 L 30.578125 63.515625 L 29.824219 55.058594 L 19.148438 55.058594 L 20.636719 71.710938 L 42.417969 77.742188 L 42.46875 77.730469 Z M 42.46875 66.695312 "/>
<path style=" stroke:none;fill-rule:nonzero;fill:rgb(100%,100%,100%);fill-opacity:1;" d="M 67.148438 39.148438 L 69.070312 17.679688 L 42.433594 17.679688 L 42.433594 28.285156 L 57.414062 28.285156 L 56.449219 39.148438 L 42.433594 39.148438 L 42.433594 49.753906 L 55.527344 49.753906 L 54.292969 63.507812 L 42.433594 66.703125 L 42.433594 77.738281 L 64.230469 71.710938 L 64.390625 69.917969 L 66.890625 41.996094 Z M 67.148438 39.148438 "/>
</g>
</svg>
