<?xml version="1.0" encoding="UTF-8"?>
<svg xmlns="http://www.w3.org/2000/svg" xmlns:xlink="http://www.w3.org/1999/xlink" width="96pt" height="96pt" viewBox="0 0 96 96" version="1.1">
<g id="surface1">
<path style=" stroke:none;fill-rule:nonzero;fill:rgb(89.019608%,30.980392%,14.901961%);fill-opacity:1;" d="M 13.3125 86.25 L 5.625 0 L 90.1875 0 L 82.5 86.25 L 47.8125 96 "/>
<path style=" stroke:none;fill-rule:nonzero;fill:rgb(93.72549%,39.607843%,16.470588%);fill-opacity:1;" d="M 48 88.5 L 75.9375 80.8125 L 82.5 6.9375 L 48 6.9375 "/>
<path style=" stroke:none;fill-rule:nonzero;fill:rgb(92.156863%,92.156863%,92.156863%);fill-opacity:1;" d="M 48 39 L 33.9375 39 L 33 28.125 L 48 28.125 L 48 17.625 L 21.375 17.625 L 21.5625 20.4375 L 24.1875 49.6875 L 48 49.6875 Z M 48 66.5625 L 47.8125 66.5625 L 36 63.375 L 35.25 54.9375 L 24.75 54.9375 L 26.0625 71.625 L 47.8125 77.625 L 48 77.625 Z M 48 66.5625 "/>
<path style=" stroke:none;fill-rule:nonzero;fill:rgb(100%,100%,100%);fill-opacity:1;" d="M 47.8125 39 L 47.8125 49.6875 L 60.9375 49.6875 L 59.625 63.375 L 47.8125 66.5625 L 47.8125 77.625 L 69.5625 71.625 L 69.75 69.75 L 72.1875 41.8125 L 72.5625 39 Z M 47.8125 17.625 L 47.8125 28.125 L 73.5 28.125 L 73.6875 25.875 L 74.25 20.4375 L 74.4375 17.625 Z M 47.8125 17.625 "/>
</g>
</svg>
