<?xml version="1.0" encoding="UTF-8"?>
<svg xmlns="http://www.w3.org/2000/svg" xmlns:xlink="http://www.w3.org/1999/xlink" width="64pt" height="64pt" viewBox="0 0 64 64" version="1.1">
<g id="surface1">
<rect x="0" y="0" width="64" height="64" style="fill:rgb(96.862745%,87.45098%,11.764706%);fill-opacity:1;stroke:none;"/>
<path style=" stroke:none;fill-rule:nonzero;fill:rgb(0%,0%,0%);fill-opacity:1;" d="M 16.828125 53.484375 L 21.726562 50.519531 C 22.671875 52.195312 23.53125 53.613281 25.589844 53.613281 C 27.566406 53.613281 28.8125 52.839844 28.8125 49.832031 L 28.8125 29.382812 L 34.828125 29.382812 L 34.828125 49.917969 C 34.828125 56.144531 31.175781 58.980469 25.847656 58.980469 C 21.039062 58.980469 18.246094 56.488281 16.828125 53.484375 "/>
<path style=" stroke:none;fill-rule:nonzero;fill:rgb(0%,0%,0%);fill-opacity:1;" d="M 38.09375 52.839844 L 42.992188 50.003906 C 44.28125 52.109375 45.957031 53.65625 48.921875 53.65625 C 51.414062 53.65625 53.003906 52.410156 53.003906 50.691406 C 53.003906 48.628906 51.371094 47.898438 48.621094 46.695312 L 47.117188 46.050781 C 42.777344 44.203125 39.898438 41.882812 39.898438 36.984375 C 39.898438 32.476562 43.335938 29.039062 48.707031 29.039062 C 52.53125 29.039062 55.28125 30.371094 57.253906 33.851562 L 52.574219 36.855469 C 51.542969 35.011719 50.425781 34.28125 48.707031 34.28125 C 46.945312 34.28125 45.828125 35.398438 45.828125 36.855469 C 45.828125 38.660156 46.945312 39.390625 49.523438 40.507812 L 51.027344 41.152344 C 56.136719 43.34375 59.015625 45.578125 59.015625 50.605469 C 59.015625 56.019531 54.765625 58.980469 49.050781 58.980469 C 43.464844 58.980469 39.855469 56.320312 38.09375 52.839844 "/>
</g>
</svg>
