<?xml version="1.0" encoding="UTF-8"?>
<svg xmlns="http://www.w3.org/2000/svg" xmlns:xlink="http://www.w3.org/1999/xlink" width="76pt" height="96pt" viewBox="0 0 76 96" version="1.1">
<g id="surface1">
<path style=" stroke:none;fill-rule:nonzero;fill:rgb(0%,0%,0%);fill-opacity:1;" d="M 21.117188 0.222656 C 20.632812 0.234375 20.113281 0.414062 19.523438 0.878906 C 18.082031 0.324219 16.679688 0.128906 15.429688 1.261719 C 13.496094 1.011719 12.867188 1.527344 12.390625 2.132812 C 11.96875 2.125 9.214844 1.695312 7.953125 3.578125 C 4.785156 3.203125 3.78125 5.445312 4.917969 7.535156 C 4.269531 8.535156 3.597656 9.527344 5.113281 11.4375 C 4.578125 12.503906 4.910156 13.65625 6.171875 15.054688 C 5.835938 16.550781 6.492188 17.605469 7.667969 18.429688 C 7.445312 20.476562 9.542969 21.667969 10.171875 22.089844 C 10.410156 23.285156 10.914062 24.410156 13.308594 25.035156 C 13.703125 26.8125 15.144531 27.117188 16.539062 27.492188 C 11.929688 30.171875 7.976562 33.695312 8.003906 42.339844 L 7.328125 43.546875 C 2.046875 46.757812 -2.707031 57.089844 4.726562 65.484375 C 5.210938 68.109375 6.023438 70 6.75 72.085938 C 7.835938 80.503906 14.914062 84.445312 16.777344 84.914062 C 19.515625 86.996094 22.429688 88.972656 26.371094 90.359375 C 30.085938 94.191406 34.113281 95.652344 38.164062 95.648438 C 38.222656 95.648438 38.28125 95.652344 38.339844 95.648438 C 42.390625 95.652344 46.417969 94.191406 50.132812 90.359375 C 54.074219 88.972656 56.988281 86.996094 59.726562 84.914062 C 61.59375 84.445312 68.667969 80.503906 69.753906 72.085938 C 70.480469 70 71.292969 68.109375 71.777344 65.484375 C 79.214844 57.089844 74.460938 46.757812 69.175781 43.546875 L 68.5 42.339844 C 68.527344 33.695312 64.574219 30.171875 59.964844 27.492188 C 61.359375 27.117188 62.800781 26.8125 63.195312 25.035156 C 65.589844 24.410156 66.09375 23.285156 66.332031 22.089844 C 66.960938 21.667969 69.058594 20.476562 68.835938 18.429688 C 70.011719 17.605469 70.667969 16.550781 70.332031 15.054688 C 71.59375 13.65625 71.925781 12.503906 71.390625 11.4375 C 72.90625 9.527344 72.234375 8.535156 71.585938 7.535156 C 72.722656 5.445312 71.722656 3.203125 68.550781 3.578125 C 67.289062 1.695312 64.535156 2.125 64.113281 2.132812 C 63.636719 1.527344 63.007812 1.011719 61.074219 1.261719 C 59.824219 0.128906 58.421875 0.324219 56.980469 0.878906 C 55.265625 -0.472656 54.128906 0.609375 52.832031 1.019531 C 50.757812 0.34375 50.28125 1.273438 49.261719 1.648438 C 47 1.171875 46.3125 2.214844 45.226562 3.3125 L 43.960938 3.289062 C 40.546875 5.300781 38.851562 9.398438 38.25 11.503906 C 37.648438 9.398438 35.957031 5.300781 32.542969 3.289062 L 31.277344 3.3125 C 30.191406 2.214844 29.503906 1.171875 27.242188 1.648438 C 26.222656 1.273438 25.746094 0.34375 23.671875 1.019531 C 22.820312 0.75 22.039062 0.191406 21.117188 0.222656 Z M 21.117188 0.222656 "/>
<path style=" stroke:none;fill-rule:nonzero;fill:rgb(45.882353%,66.27451%,15.686275%);fill-opacity:1;" d="M 14.320312 9.074219 C 23.378906 13.746094 28.644531 17.523438 31.53125 20.742188 C 30.054688 26.664062 22.34375 26.933594 19.527344 26.769531 C 20.101562 26.5 20.585938 26.175781 20.753906 25.683594 C 20.046875 25.179688 17.539062 25.628906 15.789062 24.648438 C 16.460938 24.507812 16.777344 24.371094 17.089844 23.875 C 15.4375 23.347656 13.65625 22.894531 12.605469 22.019531 C 13.171875 22.027344 13.699219 22.144531 14.4375 21.632812 C 12.957031 20.835938 11.375 20.203125 10.148438 18.980469 C 10.914062 18.960938 11.742188 18.972656 11.980469 18.691406 C 10.625 17.851562 9.480469 16.917969 8.535156 15.894531 C 9.605469 16.027344 10.058594 15.914062 10.316406 15.726562 C 9.292969 14.675781 7.996094 13.789062 7.375 12.496094 C 8.171875 12.769531 8.902344 12.875 9.425781 12.472656 C 9.078125 11.6875 7.585938 11.222656 6.726562 9.386719 C 7.5625 9.46875 8.453125 9.570312 8.628906 9.386719 C 8.242188 7.800781 7.574219 6.910156 6.917969 5.988281 C 8.710938 5.960938 11.429688 5.996094 11.304688 5.84375 L 10.195312 4.710938 C 11.949219 4.238281 13.742188 4.785156 15.042969 5.191406 C 15.625 4.730469 15.03125 4.148438 14.320312 3.554688 C 15.808594 3.753906 17.152344 4.09375 18.367188 4.566406 C 19.019531 3.980469 17.945312 3.394531 17.429688 2.804688 C 19.726562 3.242188 20.703125 3.855469 21.671875 4.46875 C 22.375 3.796875 21.710938 3.222656 21.238281 2.636719 C 22.972656 3.28125 23.863281 4.109375 24.804688 4.929688 C 25.125 4.496094 25.613281 4.183594 25.023438 3.144531 C 26.253906 3.855469 27.179688 4.691406 27.867188 5.625 C 28.628906 5.140625 28.320312 4.480469 28.324219 3.867188 C 29.605469 4.90625 30.417969 6.015625 31.410156 7.097656 C 31.609375 6.953125 31.785156 6.457031 31.941406 5.675781 C 34.992188 8.636719 39.304688 16.097656 33.050781 19.054688 C 27.726562 14.660156 21.367188 11.46875 14.320312 9.074219 Z M 14.320312 9.074219 "/>
<path style=" stroke:none;fill-rule:nonzero;fill:rgb(45.882353%,66.27451%,15.686275%);fill-opacity:1;" d="M 62.390625 9.074219 C 53.332031 13.746094 48.0625 17.523438 45.179688 20.742188 C 46.65625 26.664062 54.363281 26.933594 57.183594 26.769531 C 56.605469 26.5 56.125 26.175781 55.953125 25.683594 C 56.660156 25.179688 59.167969 25.628906 60.917969 24.648438 C 60.246094 24.507812 59.933594 24.371094 59.617188 23.875 C 61.273438 23.347656 63.054688 22.894531 64.101562 22.019531 C 63.535156 22.027344 63.007812 22.144531 62.269531 21.632812 C 63.75 20.835938 65.332031 20.203125 66.558594 18.980469 C 65.792969 18.960938 64.96875 18.972656 64.726562 18.691406 C 66.085938 17.851562 67.226562 16.917969 68.175781 15.894531 C 67.101562 16.027344 66.652344 15.914062 66.390625 15.726562 C 67.417969 14.675781 68.714844 13.789062 69.332031 12.496094 C 68.535156 12.769531 67.808594 12.875 67.285156 12.472656 C 67.632812 11.6875 69.125 11.222656 69.984375 9.386719 C 69.144531 9.46875 68.257812 9.570312 68.078125 9.386719 C 68.46875 7.800781 69.136719 6.910156 69.789062 5.988281 C 67.996094 5.960938 65.28125 5.996094 65.402344 5.84375 L 66.511719 4.710938 C 64.761719 4.238281 62.96875 4.785156 61.667969 5.191406 C 61.082031 4.730469 61.675781 4.148438 62.390625 3.554688 C 60.902344 3.753906 59.554688 4.09375 58.339844 4.566406 C 57.691406 3.980469 58.761719 3.394531 59.28125 2.804688 C 56.980469 3.242188 56.007812 3.855469 55.039062 4.46875 C 54.335938 3.796875 54.996094 3.222656 55.472656 2.636719 C 53.738281 3.28125 52.84375 4.109375 51.902344 4.929688 C 51.585938 4.496094 51.09375 4.183594 51.6875 3.144531 C 50.457031 3.855469 49.527344 4.691406 48.84375 5.625 C 48.082031 5.140625 48.386719 4.480469 48.382812 3.867188 C 47.105469 4.90625 46.292969 6.015625 45.300781 7.097656 C 45.097656 6.953125 44.921875 6.457031 44.769531 5.675781 C 41.714844 8.636719 37.402344 16.097656 43.660156 19.054688 C 48.980469 14.660156 55.34375 11.46875 62.390625 9.074219 Z M 62.390625 9.074219 "/>
<path style=" stroke:none;fill-rule:nonzero;fill:rgb(73.72549%,6.666667%,25.882353%);fill-opacity:1;" d="M 49.328125 69.382812 C 49.328125 74.90625 44.46875 79.386719 38.472656 79.386719 C 32.480469 79.386719 27.621094 74.90625 27.621094 69.382812 C 27.621094 63.855469 32.480469 59.375 38.472656 59.375 C 44.46875 59.375 49.328125 63.855469 49.328125 69.382812 Z M 49.328125 69.382812 "/>
<path style=" stroke:none;fill-rule:nonzero;fill:rgb(73.72549%,6.666667%,25.882353%);fill-opacity:1;" d="M 32.195312 40.796875 C 36.691406 43.742188 37.5 50.417969 34.003906 55.710938 C 30.507812 61 24.027344 62.902344 19.53125 59.957031 C 15.035156 57.011719 14.222656 50.332031 17.722656 45.042969 C 21.21875 39.75 27.699219 37.847656 32.195312 40.796875 Z M 32.195312 40.796875 "/>
<path style=" stroke:none;fill-rule:nonzero;fill:rgb(73.72549%,6.666667%,25.882353%);fill-opacity:1;" d="M 44.332031 40.261719 C 39.835938 43.207031 39.023438 49.886719 42.519531 55.175781 C 46.019531 60.46875 52.496094 62.371094 56.992188 59.421875 C 61.492188 56.476562 62.300781 49.800781 58.804688 44.507812 C 55.308594 39.21875 48.828125 37.316406 44.332031 40.261719 Z M 44.332031 40.261719 "/>
<path style=" stroke:none;fill-rule:nonzero;fill:rgb(73.72549%,6.666667%,25.882353%);fill-opacity:1;" d="M 9.722656 45.613281 C 14.578125 44.3125 11.359375 65.695312 7.410156 63.941406 C 3.066406 60.445312 1.664062 50.210938 9.722656 45.613281 Z M 9.722656 45.613281 "/>
<path style=" stroke:none;fill-rule:nonzero;fill:rgb(73.72549%,6.666667%,25.882353%);fill-opacity:1;" d="M 65.824219 45.34375 C 60.96875 44.042969 64.183594 65.429688 68.136719 63.675781 C 72.480469 60.179688 73.878906 49.945312 65.824219 45.34375 Z M 65.824219 45.34375 "/>
<path style=" stroke:none;fill-rule:nonzero;fill:rgb(73.72549%,6.666667%,25.882353%);fill-opacity:1;" d="M 49.328125 29.421875 C 57.707031 28.003906 64.679688 32.984375 64.398438 42.066406 C 64.121094 45.550781 46.242188 29.9375 49.328125 29.421875 Z M 49.328125 29.421875 "/>
<path style=" stroke:none;fill-rule:nonzero;fill:rgb(73.72549%,6.666667%,25.882353%);fill-opacity:1;" d="M 26.179688 29.152344 C 17.804688 27.738281 10.832031 32.714844 11.113281 41.800781 C 11.390625 45.285156 29.269531 29.671875 26.179688 29.152344 Z M 26.179688 29.152344 "/>
<path style=" stroke:none;fill-rule:nonzero;fill:rgb(73.72549%,6.666667%,25.882353%);fill-opacity:1;" d="M 38.214844 27.035156 C 33.214844 26.902344 28.417969 30.746094 28.40625 32.972656 C 28.390625 35.679688 32.359375 38.453125 38.25 38.523438 C 44.265625 38.566406 48.105469 36.304688 48.125 33.511719 C 48.148438 30.34375 42.652344 26.984375 38.214844 27.035156 Z M 38.214844 27.035156 "/>
<path style=" stroke:none;fill-rule:nonzero;fill:rgb(73.72549%,6.666667%,25.882353%);fill-opacity:1;" d="M 38.519531 82.550781 C 42.882812 82.359375 48.730469 83.953125 48.742188 86.070312 C 48.816406 88.121094 43.4375 92.761719 38.230469 92.671875 C 32.839844 92.90625 27.554688 88.257812 27.625 86.648438 C 27.542969 84.285156 34.1875 82.441406 38.519531 82.550781 Z M 38.519531 82.550781 "/>
<path style=" stroke:none;fill-rule:nonzero;fill:rgb(73.72549%,6.666667%,25.882353%);fill-opacity:1;" d="M 22.417969 70.015625 C 25.523438 73.753906 26.9375 80.324219 24.347656 82.257812 C 21.894531 83.738281 15.945312 83.128906 11.714844 77.054688 C 8.863281 71.953125 9.230469 66.765625 11.234375 65.242188 C 14.230469 63.417969 18.855469 65.878906 22.417969 70.015625 Z M 22.417969 70.015625 "/>
<path style=" stroke:none;fill-rule:nonzero;fill:rgb(73.72549%,6.666667%,25.882353%);fill-opacity:1;" d="M 54.003906 68.828125 C 50.644531 72.761719 48.773438 79.9375 51.222656 82.246094 C 53.566406 84.042969 59.855469 83.792969 64.5 77.347656 C 67.871094 73.019531 66.742188 65.789062 64.816406 63.871094 C 61.953125 61.65625 57.84375 64.488281 54.003906 68.828125 Z M 54.003906 68.828125 "/>
</g>
</svg>
