<?xml version="1.0" encoding="UTF-8"?>
<svg xmlns="http://www.w3.org/2000/svg" xmlns:xlink="http://www.w3.org/1999/xlink" width="96pt" height="96pt" viewBox="0 0 96 96" version="1.1">
<defs>
<linearGradient id="linear0" gradientUnits="userSpaceOnUse" x1="55.549179" y1="77.070274" x2="110.14919" y2="131.85291" gradientTransform="matrix(0.872727,0,0,0.872727,-39.218182,-58.881818)">
<stop offset="0" style="stop-color:rgb(21.960784%,49.411765%,72.156863%);stop-opacity:1;"/>
<stop offset="1" style="stop-color:rgb(21.176471%,41.176471%,58.039216%);stop-opacity:1;"/>
</linearGradient>
<linearGradient id="linear1" gradientUnits="userSpaceOnUse" x1="89.136749" y1="111.92053" x2="147.77737" y2="168.1012" gradientTransform="matrix(0.872727,0,0,0.872727,-39.218182,-58.881818)">
<stop offset="0" style="stop-color:rgb(100%,87.843137%,32.156863%);stop-opacity:1;"/>
<stop offset="1" style="stop-color:rgb(100%,76.470588%,19.215686%);stop-opacity:1;"/>
</linearGradient>
</defs>
<g id="surface1">
<path style=" stroke:none;fill-rule:nonzero;fill:url(#linear0);" d="M 47.835938 0 C 23.371094 0 24.898438 10.609375 24.898438 10.609375 L 24.925781 21.601562 L 48.273438 21.601562 L 48.273438 24.898438 L 15.65625 24.898438 C 15.65625 24.898438 0 23.125 0 47.808594 C 0 72.492188 13.664062 71.617188 13.664062 71.617188 L 21.816406 71.617188 L 21.816406 60.164062 C 21.816406 60.164062 21.378906 46.5 35.261719 46.5 C 49.148438 46.5 58.417969 46.5 58.417969 46.5 C 58.417969 46.5 71.425781 46.710938 71.425781 33.925781 C 71.425781 21.144531 71.425781 12.789062 71.425781 12.789062 C 71.425781 12.789062 73.402344 0 47.835938 0 Z M 34.964844 7.390625 C 37.285156 7.390625 39.164062 9.269531 39.164062 11.589844 C 39.164062 13.914062 37.285156 15.789062 34.964844 15.789062 C 32.640625 15.789062 30.761719 13.914062 30.761719 11.589844 C 30.761719 9.269531 32.640625 7.390625 34.964844 7.390625 Z M 34.964844 7.390625 "/>
<path style=" stroke:none;fill-rule:nonzero;fill:url(#linear1);" d="M 48.53125 95.867188 C 72.996094 95.867188 71.46875 85.257812 71.46875 85.257812 L 71.441406 74.265625 L 48.09375 74.265625 L 48.09375 70.964844 L 80.714844 70.964844 C 80.714844 70.964844 96.367188 72.742188 96.367188 48.054688 C 96.367188 23.371094 82.703125 24.246094 82.703125 24.246094 L 74.550781 24.246094 L 74.550781 35.703125 C 74.550781 35.703125 74.988281 49.367188 61.105469 49.367188 C 47.21875 49.367188 37.949219 49.367188 37.949219 49.367188 C 37.949219 49.367188 24.941406 49.15625 24.941406 61.9375 C 24.941406 74.722656 24.941406 83.074219 24.941406 83.074219 C 24.941406 83.074219 22.964844 95.867188 48.53125 95.867188 Z M 61.402344 88.476562 C 59.082031 88.476562 57.203125 86.597656 57.203125 84.273438 C 57.203125 81.953125 59.082031 80.074219 61.402344 80.074219 C 63.726562 80.074219 65.605469 81.953125 65.605469 84.273438 C 65.605469 86.597656 63.726562 88.476562 61.402344 88.476562 Z M 61.402344 88.476562 "/>
</g>
</svg>
